<?xml version="1.0" encoding="UTF-8"?>
<svg version="1.1" xmlns="http://www.w3.org/2000/svg" width="812" height="847">
    <style>
        .bgColor {
        fill: #000000;  /* Red color */
        }
    </style>
<path class="bgColor" d="M0 0 C267.96 0 535.92 0 812 0 C812 279.51 812 559.02 812 847 C544.04 847 276.08 847 0 847 C0 567.49 0 287.98 0 0 Z " transform="translate(0,0)"/>
<path d="M0 0 C57.09 0 114.18 0 173 0 C173 1.32 173 2.64 173 4 C115.91 4 58.82 4 0 4 C0 2.68 0 1.36 0 0 Z " fill="#939FAC" transform="translate(399,654)"/>
<path d="M0 0 C1.32 0 2.64 0 4 0 C2.26332274 5.60008765 0.01751636 10.93998295 -2.3125 16.3125 C-2.69083984 17.23095703 -3.06917969 18.14941406 -3.45898438 19.09570312 C-3.83990234 19.96775391 -4.22082031 20.83980469 -4.61328125 21.73828125 C-4.95141846 22.53274658 -5.28955566 23.32721191 -5.63793945 24.14575195 C-7 26 -7 26 -9.64916992 26.76635742 C-10.81283081 26.8820105 -10.81283081 26.8820105 -12 27 C-12 27.99 -12 28.98 -12 30 C-25.2 30 -38.4 30 -52 30 C-52 28.68 -52 27.36 -52 26 C-38.8 25.67 -25.6 25.34 -12 25 C-8.04 16.75 -4.08 8.5 0 0 Z " fill="#909CA9" transform="translate(147,552)"/>
<path d="M0 0 C1.65 0 3.3 0 5 0 C12 17.85 12 17.85 12 24 C10.35 23.67 8.7 23.34 7 23 C7 21.35 7 19.7 7 18 C4.36 18 1.72 18 -1 18 C-1.33 19.98 -1.66 21.96 -2 24 C-3.65 24 -5.3 24 -7 24 C-5.08927776 15.83600499 -2.76477561 7.9153982 0 0 Z " fill="#9AA9B5" transform="translate(464,818)"/>
<path d="M0 0 C1.65 0 3.3 0 5 0 C12 17.85 12 17.85 12 24 C10.35 23.67 8.7 23.34 7 23 C7 21.35 7 19.7 7 18 C4.36 18 1.72 18 -1 18 C-1.33 19.98 -1.66 21.96 -2 24 C-3.65 24 -5.3 24 -7 24 C-5.08927776 15.83600499 -2.76477561 7.9153982 0 0 Z " fill="#9AA9B5" transform="translate(236,818)"/>
<path d="M0 0 C1.65 0 3.3 0 5 0 C12 17.85 12 17.85 12 24 C10.35 23.67 8.7 23.34 7 23 C7 21.35 7 19.7 7 18 C4.36 18 1.72 18 -1 18 C-1.33 19.98 -1.66 21.96 -2 24 C-3.65 24 -5.3 24 -7 24 C-5.08927776 15.83600499 -2.76477561 7.9153982 0 0 Z " fill="#9AA9B5" transform="translate(160,818)"/>
<path d="M0 0 C19.47 0 38.94 0 59 0 C59 1.32 59 2.64 59 4 C39.53 4 20.06 4 0 4 C0 2.68 0 1.36 0 0 Z " fill="#929EAA" transform="translate(551,692)"/>
<path d="M0 0 C19.47 0 38.94 0 59 0 C59 1.32 59 2.64 59 4 C39.53 4 20.06 4 0 4 C0 2.68 0 1.36 0 0 Z " fill="#929EAA" transform="translate(285,692)"/>
<path d="M0 0 C19.47 0 38.94 0 59 0 C59 1.32 59 2.64 59 4 C39.53 4 20.06 4 0 4 C0 2.68 0 1.36 0 0 Z " fill="#929EAA" transform="translate(608,198)"/>
<path d="M0 0 C19.47 0 38.94 0 59 0 C59 1.32 59 2.64 59 4 C39.53 4 20.06 4 0 4 C0 2.68 0 1.36 0 0 Z " fill="#929EAA" transform="translate(228,198)"/>
<path d="M0 0 C2.67578125 1.53515625 2.67578125 1.53515625 5 4 C5.37398847 6.81239326 5.48293015 8.97592155 5.3125 11.75 C5.27866211 12.79607422 5.27866211 12.79607422 5.24414062 13.86328125 C5.18547048 15.57644935 5.09579256 17.28850623 5 19 C2.87527424 19.05386629 0.75016348 19.09273071 -1.375 19.125 C-2.55835938 19.14820313 -3.74171875 19.17140625 -4.9609375 19.1953125 C-8 19 -8 19 -10 17 C-10.375 13.5625 -10.375 13.5625 -10 10 C-8.4375 8.0625 -8.4375 8.0625 -6 7 C-2.25 6.8125 -2.25 6.8125 1 7 C0.67 6.34 0.34 5.68 0 5 C-2.97 5 -5.94 5 -9 5 C-9 3.68 -9 2.36 -9 1 C-5.66660588 -0.11113137 -3.49519344 -0.34951934 0 0 Z " fill="#9BA8B3" transform="translate(583,823)"/>
<path d="M0 0 C0.886875 -0.185625 1.77375 -0.37125 2.6875 -0.5625 C3.8321875 -0.7790625 3.8321875 -0.7790625 5 -1 C7 1 7 1 7.1953125 4.9140625 C7.18200376 6.48449351 7.15813602 8.05486221 7.125 9.625 C7.11597656 10.42679688 7.10695313 11.22859375 7.09765625 12.0546875 C7.07406223 14.03658523 7.03819065 16.01832981 7 18 C6.01 18 5.02 18 4 18 C4 13.05 4 8.1 4 3 C3.01 3 2.02 3 1 3 C1 7.95 1 12.9 1 18 C-0.32 18 -1.64 18 -3 18 C-3 13.05 -3 8.1 -3 3 C-3.99 3 -4.98 3 -6 3 C-6 7.95 -6 12.9 -6 18 C-7.32 18 -8.64 18 -10 18 C-10 12.06 -10 6.12 -10 0 C-5.42871882 -0.91425624 -4.19549375 -0.83909875 0 0 Z " fill="#94A1AC" transform="translate(354,824)"/>
<path d="M0 0 C2.875 2.1875 2.875 2.1875 5 5 C5 6.65 5 8.3 5 10 C0.71 10 -3.58 10 -8 10 C-7.01 11.65 -6.02 13.3 -5 15 C-2.72668201 15.60169446 -2.72668201 15.60169446 -0.3125 15.3125 C0.49574219 15.26738281 1.30398438 15.22226562 2.13671875 15.17578125 C3.05904297 15.08876953 3.05904297 15.08876953 4 15 C3.67 16.32 3.34 17.64 3 19 C-5.8404908 19.60736196 -5.8404908 19.60736196 -9.625 17.625 C-11.79721164 13.4780505 -11.84865437 9.56797442 -11 5 C-7.95429006 0.52101479 -5.40517683 -1.12607851 0 0 Z " fill="#9BA9B5" transform="translate(698,823)"/>
<path d="M0 0 C2.875 2.1875 2.875 2.1875 5 5 C5 6.65 5 8.3 5 10 C0.71 10 -3.58 10 -8 10 C-7.01 11.65 -6.02 13.3 -5 15 C-2.72668201 15.60169446 -2.72668201 15.60169446 -0.3125 15.3125 C0.49574219 15.26738281 1.30398438 15.22226562 2.13671875 15.17578125 C3.05904297 15.08876953 3.05904297 15.08876953 4 15 C3.67 16.32 3.34 17.64 3 19 C-5.8404908 19.60736196 -5.8404908 19.60736196 -9.625 17.625 C-11.79721164 13.4780505 -11.84865437 9.56797442 -11 5 C-7.95429006 0.52101479 -5.40517683 -1.12607851 0 0 Z " fill="#9BA9B5" transform="translate(660,823)"/>
<path d="M0 0 C2.875 2.1875 2.875 2.1875 5 5 C5 6.65 5 8.3 5 10 C0.71 10 -3.58 10 -8 10 C-7.01 11.65 -6.02 13.3 -5 15 C-2.72668201 15.60169446 -2.72668201 15.60169446 -0.3125 15.3125 C0.49574219 15.26738281 1.30398438 15.22226562 2.13671875 15.17578125 C3.05904297 15.08876953 3.05904297 15.08876953 4 15 C3.67 16.32 3.34 17.64 3 19 C-5.8404908 19.60736196 -5.8404908 19.60736196 -9.625 17.625 C-11.79721164 13.4780505 -11.84865437 9.56797442 -11 5 C-7.95429006 0.52101479 -5.40517683 -1.12607851 0 0 Z " fill="#9BA9B5" transform="translate(394,823)"/>
<path d="M0 0 C1.32 0 2.64 0 4 0 C2.26332274 5.60008765 0.01751636 10.93998295 -2.3125 16.3125 C-2.69083984 17.23095703 -3.06917969 18.14941406 -3.45898438 19.09570312 C-3.83990234 19.96775391 -4.22082031 20.83980469 -4.61328125 21.73828125 C-4.95141846 22.53274658 -5.28955566 23.32721191 -5.63793945 24.14575195 C-7 26 -7 26 -9.64916992 26.76635742 C-10.81283081 26.8820105 -10.81283081 26.8820105 -12 27 C-12 27.99 -12 28.98 -12 30 C-18.93 30 -25.86 30 -33 30 C-33 28.68 -33 27.36 -33 26 C-22.605 25.505 -22.605 25.505 -12 25 C-8.04 16.75 -4.08 8.5 0 0 Z " fill="#9AAAB8" transform="translate(717,590)"/>
<path d="M0 0 C1.32 0 2.64 0 4 0 C2.26332274 5.60008765 0.01751636 10.93998295 -2.3125 16.3125 C-2.69083984 17.23095703 -3.06917969 18.14941406 -3.45898438 19.09570312 C-3.83990234 19.96775391 -4.22082031 20.83980469 -4.61328125 21.73828125 C-4.95141846 22.53274658 -5.28955566 23.32721191 -5.63793945 24.14575195 C-7 26 -7 26 -9.64916992 26.76635742 C-10.81283081 26.8820105 -10.81283081 26.8820105 -12 27 C-12 27.99 -12 28.98 -12 30 C-18.93 30 -25.86 30 -33 30 C-33 28.68 -33 27.36 -33 26 C-22.605 25.505 -22.605 25.505 -12 25 C-8.04 16.75 -4.08 8.5 0 0 Z " fill="#9AAAB8" transform="translate(128,514)"/>
<path d="M0 0 C1.32 0 2.64 0 4 0 C4.27714844 0.99902344 4.55429688 1.99804688 4.83984375 3.02734375 C5.20555549 4.33077791 5.57145038 5.63416069 5.9375 6.9375 C6.11990234 7.59685547 6.30230469 8.25621094 6.49023438 8.93554688 C7.22596101 12.23821173 7.22596101 12.23821173 9 15 C10.32 10.05 11.64 5.1 13 0 C14.32 0 15.64 0 17 0 C15.66666667 19.33333333 15.66666667 19.33333333 11 24 C9.33382885 24.04063832 7.66611905 24.042721 6 24 C4.98806371 20.94131492 3.9926063 17.87750729 3 14.8125 C2.71382812 13.94818359 2.42765625 13.08386719 2.1328125 12.19335938 C1.86210937 11.35224609 1.59140625 10.51113281 1.3125 9.64453125 C1.06113281 8.87471924 0.80976563 8.10490723 0.55078125 7.31176758 C-0.04716559 4.80203413 -0.09543462 2.57077005 0 0 Z " fill="#95A5B1" transform="translate(192,818)"/>
<path d="M0 0 C0.33 1.65 0.66 3.3 1 5 C-1.64 4.67 -4.28 4.34 -7 4 C-8.84586777 7.14969501 -9.27170838 9.48884674 -9.25 13.125 C-9.25515625 13.99382813 -9.2603125 14.86265625 -9.265625 15.7578125 C-9.2106341 18.20203887 -9.2106341 18.20203887 -7 20 C-5.0068433 20.02375926 -5.0068433 20.02375926 -2.875 19.625 C-1.59625 19.41875 -0.3175 19.2125 1 19 C1 20.65 1 22.3 1 24 C-8.14166085 24.62805304 -8.14166085 24.62805304 -11.5625 22.125 C-14.96431808 17.09622544 -14.65529527 11.92078547 -14 6 C-11.4851834 -0.67346455 -6.2423662 -0.73439602 0 0 Z " fill="#9EADB9" transform="translate(283,818)"/>
<path d="M0 0 C2.97 0 5.94 0 9 0 C9.08078777 3.43796837 9.14039791 6.87404727 9.1875 10.3125 C9.22520508 11.77719727 9.22520508 11.77719727 9.26367188 13.27148438 C9.27817383 14.67817383 9.27817383 14.67817383 9.29296875 16.11328125 C9.31653442 17.40939331 9.31653442 17.40939331 9.34057617 18.73168945 C8.92656244 21.48910997 8.21702533 22.35707312 6 24 C3.51953125 24.29296875 3.51953125 24.29296875 0.8125 24.1875 C-0.53908203 24.14689453 -0.53908203 24.14689453 -1.91796875 24.10546875 C-2.60503906 24.07066406 -3.29210937 24.03585937 -4 24 C-4.33 22.35 -4.66 20.7 -5 19 C-2.03 19.33 0.94 19.66 4 20 C4.33 14.39 4.66 8.78 5 3 C3.35 3 1.7 3 0 3 C0 2.01 0 1.02 0 0 Z " fill="#9CACB9" transform="translate(121,818)"/>
<path d="M0 0 C0 1.32 0 2.64 0 4 C-1.299375 3.979375 -2.59875 3.95875 -3.9375 3.9375 C-5.29165633 3.91600546 -6.64756083 3.92851801 -8 4 C-9.19695276 4.97910585 -9.19695276 4.97910585 -9.1328125 6.8125 C-9.13023437 7.534375 -9.12765625 8.25625 -9.125 9 C-9.12757813 9.721875 -9.13015625 10.44375 -9.1328125 11.1875 C-9.19695276 13.02089415 -9.19695276 13.02089415 -8 14 C-5.32941149 14.14115161 -2.67567762 14.04247107 0 14 C-0.33 15.32 -0.66 16.64 -1 18 C-7.24159797 19.34622701 -7.24159797 19.34622701 -10.875 17.6875 C-13.32149637 15.74469406 -13.89278441 14.86538296 -14.2734375 11.79296875 C-14.44827172 7.30779858 -14.43985335 4.72362971 -12.0625 0.8125 C-7.80610727 -1.70658957 -4.69537275 -1.0331866 0 0 Z " fill="#98A5B0" transform="translate(550,824)"/>
<path d="M0 0 C1.32 0 2.64 0 4 0 C7.67006389 6.63560659 9.09948426 12.43047375 8 20 C6.92313637 23.47195687 5.58779661 26.73225787 4 30 C2.68 30 1.36 30 0 30 C0.2165625 29.39414062 0.433125 28.78828125 0.65625 28.1640625 C4.04601952 17.96336719 3.60353304 10.08131268 0 0 Z " fill="#96A4AE" transform="translate(500,245)"/>
<path d="M0 0 C1.32 0 2.64 0 4 0 C7.67006389 6.63560659 9.09948426 12.43047375 8 20 C6.92313637 23.47195687 5.58779661 26.73225787 4 30 C2.68 30 1.36 30 0 30 C0.2165625 29.39414063 0.433125 28.78828125 0.65625 28.1640625 C4.04601952 17.96336719 3.60353304 10.08131268 0 0 Z " fill="#96A4AE" transform="translate(367,207)"/>
<path d="M0 0 C1.32 0 2.64 0 4 0 C7.67006389 6.63560659 9.09948426 12.43047375 8 20 C6.92313637 23.47195687 5.58779661 26.73225787 4 30 C2.68 30 1.36 30 0 30 C0.2165625 29.39414063 0.433125 28.78828125 0.65625 28.1640625 C4.04601952 17.96336719 3.60353304 10.08131268 0 0 Z " fill="#96A4AE" transform="translate(500,169)"/>
<path d="M0 0 C1.32 0 2.64 0 4 0 C7.67006389 6.63560659 9.09948426 12.43047375 8 20 C6.92313637 23.47195687 5.58779661 26.73225787 4 30 C2.68 30 1.36 30 0 30 C0.2165625 29.39414063 0.433125 28.78828125 0.65625 28.1640625 C4.04601952 17.96336719 3.60353304 10.08131268 0 0 Z " fill="#96A4AE" transform="translate(367,131)"/>
<path d="M0 0 C1.32 0 2.64 0 4 0 C7.67006389 6.63560659 9.09948426 12.43047375 8 20 C6.92313637 23.47195687 5.58779661 26.73225787 4 30 C2.68 30 1.36 30 0 30 C0.2165625 29.39414063 0.433125 28.78828125 0.65625 28.1640625 C4.04601952 17.96336719 3.60353304 10.08131268 0 0 Z " fill="#96A4AE" transform="translate(291,131)"/>
<path d="M0 0 C1.32 0 2.64 0 4 0 C7.67006389 6.63560659 9.09948426 12.43047375 8 20 C6.92313637 23.47195687 5.58779661 26.73225787 4 30 C2.68 30 1.36 30 0 30 C0.2165625 29.39414063 0.433125 28.78828125 0.65625 28.1640625 C4.04601952 17.96336719 3.60353304 10.08131268 0 0 Z " fill="#96A4AE" transform="translate(576,93)"/>
<path d="M0 0 C1.32 0 2.64 0 4 0 C7.67006389 6.63560659 9.09948426 12.43047375 8 20 C6.92313637 23.47195687 5.58779661 26.73225787 4 30 C2.68 30 1.36 30 0 30 C0.2165625 29.39414063 0.433125 28.78828125 0.65625 28.1640625 C4.04601952 17.96336719 3.60353304 10.08131268 0 0 Z " fill="#96A4AE" transform="translate(500,93)"/>
<path d="M0 0 C1.32 0 2.64 0 4 0 C7.67006389 6.63560659 9.09948426 12.43047375 8 20 C6.92313637 23.47195687 5.58779661 26.73225787 4 30 C2.68 30 1.36 30 0 30 C0.2165625 29.39414063 0.433125 28.78828125 0.65625 28.1640625 C4.04601952 17.96336719 3.60353304 10.08131268 0 0 Z " fill="#96A4AE" transform="translate(367,55)"/>
<path d="M0 0 C0.99 0 1.98 0 3 0 C2.67 0.886875 2.34 1.77375 2 2.6875 C-0.52440055 11.64094943 0.54884457 20.51590957 4 29 C2.68 29 1.36 29 0 29 C-4.12816574 21.86785652 -5.09047748 15.16809571 -4 7 C-2.94445337 4.22009056 -1.79178363 2.40770925 0 0 Z " fill="#99A8B3" transform="translate(87,550)"/>
<path d="M0 0 C0.99 0 1.98 0 3 0 C2.67 0.886875 2.34 1.77375 2 2.6875 C-0.52440055 11.64094943 0.54884457 20.51590957 4 29 C2.68 29 1.36 29 0 29 C-4.12816574 21.86785652 -5.09047748 15.16809571 -4 7 C-2.94445337 4.22009056 -1.79178363 2.40770925 0 0 Z " fill="#99A8B3" transform="translate(467,208)"/>
<path d="M0 0 C0.99 0 1.98 0 3 0 C2.67 0.886875 2.34 1.77375 2 2.6875 C-0.52440055 11.64094943 0.54884457 20.51590957 4 29 C2.68 29 1.36 29 0 29 C-4.12816574 21.86785652 -5.09047748 15.16809571 -4 7 C-2.94445337 4.22009056 -1.79178363 2.40770925 0 0 Z " fill="#99A8B3" transform="translate(353,170)"/>
<path d="M0 0 C0.99 0 1.98 0 3 0 C2.67 0.886875 2.34 1.77375 2 2.6875 C-0.52440055 11.64094943 0.54884457 20.51590957 4 29 C2.68 29 1.36 29 0 29 C-4.12816574 21.86785652 -5.09047748 15.16809571 -4 7 C-2.94445337 4.22009056 -1.79178363 2.40770925 0 0 Z " fill="#99A8B3" transform="translate(562,132)"/>
<path d="M0 0 C0.99 0 1.98 0 3 0 C2.67 0.886875 2.34 1.77375 2 2.6875 C-0.52440055 11.64094943 0.54884457 20.51590957 4 29 C2.68 29 1.36 29 0 29 C-4.12816574 21.86785652 -5.09047748 15.16809571 -4 7 C-2.94445337 4.22009056 -1.79178363 2.40770925 0 0 Z " fill="#99A8B3" transform="translate(486,132)"/>
<path d="M0 0 C0.99 0 1.98 0 3 0 C2.67 0.886875 2.34 1.77375 2 2.6875 C-0.52440055 11.64094943 0.54884457 20.51590957 4 29 C2.68 29 1.36 29 0 29 C-4.12816574 21.86785652 -5.09047748 15.16809571 -4 7 C-2.94445337 4.22009056 -1.79178363 2.40770925 0 0 Z " fill="#99A8B3" transform="translate(353,94)"/>
<path d="M0 0 C0.99 0 1.98 0 3 0 C2.67 0.886875 2.34 1.77375 2 2.6875 C-0.52440055 11.64094943 0.54884457 20.51590957 4 29 C2.68 29 1.36 29 0 29 C-4.12816574 21.86785652 -5.09047748 15.16809571 -4 7 C-2.94445337 4.22009056 -1.79178363 2.40770925 0 0 Z " fill="#99A8B3" transform="translate(277,94)"/>
<path d="M0 0 C0.99 0 1.98 0 3 0 C2.67 0.886875 2.34 1.77375 2 2.6875 C-0.52440055 11.64094943 0.54884457 20.51590957 4 29 C2.68 29 1.36 29 0 29 C-4.12816574 21.86785652 -5.09047748 15.16809571 -4 7 C-2.94445337 4.22009056 -1.79178363 2.40770925 0 0 Z " fill="#99A8B3" transform="translate(486,56)"/>
<path d="M0 0 C0.99 0 1.98 0 3 0 C2.67 0.886875 2.34 1.77375 2 2.6875 C-0.52440055 11.64094943 0.54884457 20.51590957 4 29 C2.68 29 1.36 29 0 29 C-4.12816574 21.86785652 -5.09047748 15.16809571 -4 7 C-2.94445337 4.22009056 -1.79178363 2.40770925 0 0 Z " fill="#99A8B3" transform="translate(353,18)"/>
<path d="M0 0 C2.3190918 0.17016602 2.3190918 0.17016602 5 1 C6.57739258 3.28491211 6.57739258 3.28491211 7.89453125 6.27734375 C8.37470703 7.34791016 8.85488281 8.41847656 9.34960938 9.52148438 C9.83236328 10.64876953 10.31511719 11.77605469 10.8125 12.9375 C11.31458984 14.06091797 11.81667969 15.18433594 12.33398438 16.34179688 C16 24.63646896 16 24.63646896 16 27 C14.68 27 13.36 27 12 27 C10.18497611 23.06365857 8.37341424 19.12573356 6.5625 15.1875 C6.04623047 14.06794922 5.52996094 12.94839844 4.99804688 11.79492188 C4.25844727 10.18520508 4.25844727 10.18520508 3.50390625 8.54296875 C3.04830322 7.55321045 2.5927002 6.56345215 2.12329102 5.54370117 C1 3 1 3 0 0 Z " fill="#9CAAB4" transform="translate(192,628)"/>
<path d="M0 0 C2.3190918 0.17016602 2.3190918 0.17016602 5 1 C6.57739258 3.28491211 6.57739258 3.28491211 7.89453125 6.27734375 C8.37470703 7.34791016 8.85488281 8.41847656 9.34960938 9.52148438 C9.83236328 10.64876953 10.31511719 11.77605469 10.8125 12.9375 C11.31458984 14.06091797 11.81667969 15.18433594 12.33398438 16.34179688 C16 24.63646896 16 24.63646896 16 27 C14.68 27 13.36 27 12 27 C10.18497611 23.06365857 8.37341424 19.12573356 6.5625 15.1875 C6.04623047 14.06794922 5.52996094 12.94839844 4.99804688 11.79492188 C4.25844727 10.18520508 4.25844727 10.18520508 3.50390625 8.54296875 C3.04830322 7.55321045 2.5927002 6.56345215 2.12329102 5.54370117 C1 3 1 3 0 0 Z " fill="#9CAAB4" transform="translate(249,590)"/>
<path d="M0 0 C1.32 0 2.64 0 4 0 C2.26332274 5.60008765 0.01751636 10.93998295 -2.3125 16.3125 C-2.69083984 17.23095703 -3.06917969 18.14941406 -3.45898438 19.09570312 C-3.83990234 19.96775391 -4.22082031 20.83980469 -4.61328125 21.73828125 C-4.95141846 22.53274658 -5.28955566 23.32721191 -5.63793945 24.14575195 C-7 26 -7 26 -9.64916992 26.76635742 C-10.81283081 26.8820105 -10.81283081 26.8820105 -12 27 C-10.26460179 21.07570956 -7.55448391 15.6641012 -4.875 10.125 C-4.40707031 9.15046875 -3.93914063 8.1759375 -3.45703125 7.171875 C-2.30785155 4.77970501 -1.15542757 2.38915684 0 0 Z " fill="#98A9B7" transform="translate(736,552)"/>
<path d="M0 0 C2.3190918 0.17016602 2.3190918 0.17016602 5 1 C6.57739258 3.28491211 6.57739258 3.28491211 7.89453125 6.27734375 C8.37470703 7.34791016 8.85488281 8.41847656 9.34960938 9.52148438 C9.83236328 10.64876953 10.31511719 11.77605469 10.8125 12.9375 C11.31458984 14.06091797 11.81667969 15.18433594 12.33398438 16.34179688 C16 24.63646896 16 24.63646896 16 27 C14.68 27 13.36 27 12 27 C10.18497611 23.06365857 8.37341424 19.12573356 6.5625 15.1875 C6.04623047 14.06794922 5.52996094 12.94839844 4.99804688 11.79492188 C4.25844727 10.18520508 4.25844727 10.18520508 3.50390625 8.54296875 C3.04830322 7.55321045 2.5927002 6.56345215 2.12329102 5.54370117 C1 3 1 3 0 0 Z " fill="#9CAAB4" transform="translate(192,552)"/>
<path d="M0 0 C1.32 0 2.64 0 4 0 C2.26332274 5.60008765 0.01751636 10.93998295 -2.3125 16.3125 C-2.69083984 17.23095703 -3.06917969 18.14941406 -3.45898438 19.09570312 C-3.83990234 19.96775391 -4.22082031 20.83980469 -4.61328125 21.73828125 C-4.95141846 22.53274658 -5.28955566 23.32721191 -5.63793945 24.14575195 C-7 26 -7 26 -9.64916992 26.76635742 C-10.81283081 26.8820105 -10.81283081 26.8820105 -12 27 C-10.26460179 21.07570956 -7.55448391 15.6641012 -4.875 10.125 C-4.40707031 9.15046875 -3.93914062 8.1759375 -3.45703125 7.171875 C-2.30785155 4.77970501 -1.15542757 2.38915684 0 0 Z " fill="#98A9B7" transform="translate(166,514)"/>
<path d="M0 0 C2.3190918 0.17016602 2.3190918 0.17016602 5 1 C6.57739258 3.28491211 6.57739258 3.28491211 7.89453125 6.27734375 C8.37470703 7.34791016 8.85488281 8.41847656 9.34960938 9.52148438 C9.83236328 10.64876953 10.31511719 11.77605469 10.8125 12.9375 C11.31458984 14.06091797 11.81667969 15.18433594 12.33398438 16.34179688 C16 24.63646896 16 24.63646896 16 27 C14.68 27 13.36 27 12 27 C10.18497611 23.06365857 8.37341424 19.12573356 6.5625 15.1875 C6.04623047 14.06794922 5.52996094 12.94839844 4.99804688 11.79492188 C4.25844727 10.18520508 4.25844727 10.18520508 3.50390625 8.54296875 C3.04830322 7.55321045 2.5927002 6.56345215 2.12329102 5.54370117 C1 3 1 3 0 0 Z " fill="#9CAAB4" transform="translate(116,476)"/>
<path d="M0 0 C2.3190918 0.17016602 2.3190918 0.17016602 5 1 C6.57739258 3.28491211 6.57739258 3.28491211 7.89453125 6.27734375 C8.37470703 7.34791016 8.85488281 8.41847656 9.34960938 9.52148438 C9.83236328 10.64876953 10.31511719 11.77605469 10.8125 12.9375 C11.31458984 14.06091797 11.81667969 15.18433594 12.33398438 16.34179688 C16 24.63646896 16 24.63646896 16 27 C14.68 27 13.36 27 12 27 C10.18497611 23.06365857 8.37341424 19.12573356 6.5625 15.1875 C6.04623047 14.06794922 5.52996094 12.94839844 4.99804688 11.79492188 C4.25844727 10.18520508 4.25844727 10.18520508 3.50390625 8.54296875 C3.04830322 7.55321045 2.5927002 6.56345215 2.12329102 5.54370117 C1 3 1 3 0 0 Z " fill="#9CAAB4" transform="translate(135,438)"/>
<path d="M0 0 C2.3190918 0.17016602 2.3190918 0.17016602 5 1 C6.57739258 3.28491211 6.57739258 3.28491211 7.89453125 6.27734375 C8.37470703 7.34791016 8.85488281 8.41847656 9.34960938 9.52148438 C9.83236328 10.64876953 10.31511719 11.77605469 10.8125 12.9375 C11.31458984 14.06091797 11.81667969 15.18433594 12.33398438 16.34179688 C16 24.63646896 16 24.63646896 16 27 C14.68 27 13.36 27 12 27 C10.18497611 23.06365857 8.37341424 19.12573356 6.5625 15.1875 C6.04623047 14.06794922 5.52996094 12.94839844 4.99804688 11.79492188 C4.25844727 10.18520508 4.25844727 10.18520508 3.50390625 8.54296875 C3.04830322 7.55321045 2.5927002 6.56345215 2.12329102 5.54370117 C1 3 1 3 0 0 Z " fill="#9CAAB4" transform="translate(78,438)"/>
<path d="M0 0 C2.3190918 0.17016602 2.3190918 0.17016602 5 1 C6.57739258 3.28491211 6.57739258 3.28491211 7.89453125 6.27734375 C8.37470703 7.34791016 8.85488281 8.41847656 9.34960938 9.52148438 C9.83236328 10.64876953 10.31511719 11.77605469 10.8125 12.9375 C11.31458984 14.06091797 11.81667969 15.18433594 12.33398438 16.34179688 C16 24.63646896 16 24.63646896 16 27 C14.68 27 13.36 27 12 27 C10.18497611 23.06365857 8.37341424 19.12573356 6.5625 15.1875 C6.04623047 14.06794922 5.52996094 12.94839844 4.99804688 11.79492188 C4.25844727 10.18520508 4.25844727 10.18520508 3.50390625 8.54296875 C3.04830322 7.55321045 2.5927002 6.56345215 2.12329102 5.54370117 C1 3 1 3 0 0 Z " fill="#9CAAB4" transform="translate(97,400)"/>
<path d="M0 0 C2.3190918 0.17016602 2.3190918 0.17016602 5 1 C6.57739258 3.28491211 6.57739258 3.28491211 7.89453125 6.27734375 C8.37470703 7.34791016 8.85488281 8.41847656 9.34960938 9.52148438 C9.83236328 10.64876953 10.31511719 11.77605469 10.8125 12.9375 C11.31458984 14.06091797 11.81667969 15.18433594 12.33398438 16.34179688 C16 24.63646896 16 24.63646896 16 27 C14.68 27 13.36 27 12 27 C10.18497611 23.06365857 8.37341424 19.12573356 6.5625 15.1875 C6.04623047 14.06794922 5.52996094 12.94839844 4.99804688 11.79492188 C4.25844727 10.18520508 4.25844727 10.18520508 3.50390625 8.54296875 C3.04830322 7.55321045 2.5927002 6.56345215 2.12329102 5.54370117 C1 3 1 3 0 0 Z " fill="#9CAAB4" transform="translate(40,400)"/>
<path d="M0 0 C1.32 0 2.64 0 4 0 C2.26332274 5.60008765 0.01751636 10.93998295 -2.3125 16.3125 C-2.69083984 17.23095703 -3.06917969 18.14941406 -3.45898438 19.09570312 C-3.83990234 19.96775391 -4.22082031 20.83980469 -4.61328125 21.73828125 C-4.95141846 22.53274658 -5.28955566 23.32721191 -5.63793945 24.14575195 C-7 26 -7 26 -9.64916992 26.76635742 C-10.81283081 26.8820105 -10.81283081 26.8820105 -12 27 C-10.26460179 21.07570956 -7.55448391 15.6641012 -4.875 10.125 C-4.40707031 9.15046875 -3.93914062 8.1759375 -3.45703125 7.171875 C-2.30785155 4.77970501 -1.15542757 2.38915684 0 0 Z " fill="#98A9B7" transform="translate(90,324)"/>
<path d="M0 0 C1.32 0 2.64 0 4 0 C2.26332274 5.60008765 0.01751636 10.93998295 -2.3125 16.3125 C-2.69083984 17.23095703 -3.06917969 18.14941406 -3.45898438 19.09570312 C-3.83990234 19.96775391 -4.22082031 20.83980469 -4.61328125 21.73828125 C-4.95141846 22.53274658 -5.28955566 23.32721191 -5.63793945 24.14575195 C-7 26 -7 26 -9.64916992 26.76635742 C-10.81283081 26.8820105 -10.81283081 26.8820105 -12 27 C-10.26460179 21.07570956 -7.55448391 15.6641012 -4.875 10.125 C-4.40707031 9.15046875 -3.93914063 8.1759375 -3.45703125 7.171875 C-2.30785155 4.77970501 -1.15542757 2.38915684 0 0 Z " fill="#98A9B7" transform="translate(33,324)"/>
<path d="M0 0 C1.32 0 2.64 0 4 0 C2.26332274 5.60008765 0.01751636 10.93998295 -2.3125 16.3125 C-2.69083984 17.23095703 -3.06917969 18.14941406 -3.45898438 19.09570312 C-3.83990234 19.96775391 -4.22082031 20.83980469 -4.61328125 21.73828125 C-4.95141846 22.53274658 -5.28955566 23.32721191 -5.63793945 24.14575195 C-7 26 -7 26 -9.64916992 26.76635742 C-10.81283081 26.8820105 -10.81283081 26.8820105 -12 27 C-10.26460179 21.07570956 -7.55448391 15.6641012 -4.875 10.125 C-4.40707031 9.15046875 -3.93914063 8.1759375 -3.45703125 7.171875 C-2.30785155 4.77970501 -1.15542757 2.38915684 0 0 Z " fill="#98A9B7" transform="translate(52,286)"/>
<path d="M0 0 C0.33 1.65 0.66 3.3 1 5 C0.05125 4.979375 -0.8975 4.95875 -1.875 4.9375 C-4.90666283 4.77448174 -4.90666283 4.77448174 -7 6 C-7.46954261 9.04581269 -7.46954261 9.04581269 -7.625 12.5625 C-7.73714844 14.35880859 -7.73714844 14.35880859 -7.8515625 16.19140625 C-7.90054688 17.11824219 -7.94953125 18.04507813 -8 19 C-9.32 19 -10.64 19 -12 19 C-12 13.06 -12 7.12 -12 1 C-4.125 -0.125 -4.125 -0.125 0 0 Z " fill="#97A6B4" transform="translate(740,823)"/>
<path d="M0 0 C0.33 1.65 0.66 3.3 1 5 C0.05125 4.979375 -0.8975 4.95875 -1.875 4.9375 C-4.90666283 4.77448174 -4.90666283 4.77448174 -7 6 C-7.46954261 9.04581269 -7.46954261 9.04581269 -7.625 12.5625 C-7.73714844 14.35880859 -7.73714844 14.35880859 -7.8515625 16.19140625 C-7.90054688 17.11824219 -7.94953125 18.04507813 -8 19 C-9.32 19 -10.64 19 -12 19 C-12 13.06 -12 7.12 -12 1 C-4.125 -0.125 -4.125 -0.125 0 0 Z " fill="#97A6B4" transform="translate(626,823)"/>
<path d="M0 0 C1.32 0 2.64 0 4 0 C2.26848149 5.61347131 -0.01828198 10.94056921 -2.375 16.3125 C-2.76171875 17.23095703 -3.1484375 18.14941406 -3.546875 19.09570312 C-3.93101562 19.96775391 -4.31515625 20.83980469 -4.7109375 21.73828125 C-5.05431152 22.53274658 -5.39768555 23.32721191 -5.75146484 24.14575195 C-7 26 -7 26 -9.14306641 26.76635742 C-10.06224854 26.8820105 -10.06224854 26.8820105 -11 27 C-10.50617379 20.75887723 -7.65818138 15.64869424 -4.9375 10.125 C-4.46505859 9.15046875 -3.99261719 8.1759375 -3.50585938 7.171875 C-2.34404403 4.77783126 -1.1752793 2.38745506 0 0 Z " fill="#9AAAB8" transform="translate(147,552)"/>
<path d="M0 0 C0.99 0 1.98 0 3 0 C3 10.56 3 21.12 3 32 C2.01 32 1.02 32 0 32 C0 21.44 0 10.88 0 0 Z " fill="#A9B0B4" transform="translate(181,589)"/>
<path d="M0 0 C0.99 0 1.98 0 3 0 C3 10.56 3 21.12 3 32 C2.01 32 1.02 32 0 32 C0 21.44 0 10.88 0 0 Z " fill="#A9B0B4" transform="translate(751,475)"/>
<path d="M0 0 C0.99 0 1.98 0 3 0 C3 10.56 3 21.12 3 32 C2.01 32 1.02 32 0 32 C0 21.44 0 10.88 0 0 Z " fill="#A9B0B4" transform="translate(181,475)"/>
<path d="M0 0 C0.99 0 1.98 0 3 0 C3 10.56 3 21.12 3 32 C2.01 32 1.02 32 0 32 C0 21.44 0 10.88 0 0 Z " fill="#A9B0B4" transform="translate(751,437)"/>
<path d="M0 0 C0.99 0 1.98 0 3 0 C3 10.56 3 21.12 3 32 C2.01 32 1.02 32 0 32 C0 21.44 0 10.88 0 0 Z " fill="#A9B0B4" transform="translate(181,437)"/>
<path d="M0 0 C0.99 0 1.98 0 3 0 C3 10.56 3 21.12 3 32 C2.01 32 1.02 32 0 32 C0 21.44 0 10.88 0 0 Z " fill="#A9B0B4" transform="translate(751,399)"/>
<path d="M0 0 C0.99 0 1.98 0 3 0 C3 10.56 3 21.12 3 32 C2.01 32 1.02 32 0 32 C0 21.44 0 10.88 0 0 Z " fill="#A9B0B4" transform="translate(181,399)"/>
<path d="M0 0 C0.99 0 1.98 0 3 0 C3 10.56 3 21.12 3 32 C2.01 32 1.02 32 0 32 C0 21.44 0 10.88 0 0 Z " fill="#A9B0B4" transform="translate(751,361)"/>
<path d="M0 0 C0.99 0 1.98 0 3 0 C3 10.56 3 21.12 3 32 C2.01 32 1.02 32 0 32 C0 21.44 0 10.88 0 0 Z " fill="#A9B0B4" transform="translate(181,361)"/>
<path d="M0 0 C0.99 0 1.98 0 3 0 C3 10.56 3 21.12 3 32 C2.01 32 1.02 32 0 32 C0 21.44 0 10.88 0 0 Z " fill="#A9B0B4" transform="translate(86,361)"/>
<path d="M0 0 C0.99 0 1.98 0 3 0 C3 10.56 3 21.12 3 32 C2.01 32 1.02 32 0 32 C0 21.44 0 10.88 0 0 Z " fill="#A9B0B4" transform="translate(29,361)"/>
<path d="M0 0 C0.99 0 1.98 0 3 0 C3 10.56 3 21.12 3 32 C2.01 32 1.02 32 0 32 C0 21.44 0 10.88 0 0 Z " fill="#A9B0B4" transform="translate(751,323)"/>
<path d="M0 0 C0.99 0 1.98 0 3 0 C3 10.56 3 21.12 3 32 C2.01 32 1.02 32 0 32 C0 21.44 0 10.88 0 0 Z " fill="#A9B0B4" transform="translate(181,323)"/>
<path d="M0 0 C0.99 0 1.98 0 3 0 C3 10.56 3 21.12 3 32 C2.01 32 1.02 32 0 32 C0 21.44 0 10.88 0 0 Z " fill="#A9B0B4" transform="translate(751,285)"/>
<path d="M0 0 C0.99 0 1.98 0 3 0 C3 10.56 3 21.12 3 32 C2.01 32 1.02 32 0 32 C0 21.44 0 10.88 0 0 Z " fill="#A9B0B4" transform="translate(181,285)"/>
<path d="M0 0 C0.99 0 1.98 0 3 0 C3 10.56 3 21.12 3 32 C2.01 32 1.02 32 0 32 C0 21.44 0 10.88 0 0 Z " fill="#A9B0B4" transform="translate(751,247)"/>
<path d="M0 0 C0.99 0 1.98 0 3 0 C3 10.56 3 21.12 3 32 C2.01 32 1.02 32 0 32 C0 21.44 0 10.88 0 0 Z " fill="#A9B0B4" transform="translate(181,247)"/>
<path d="M0 0 C0.33 0.66 0.66 1.32 1 2 C0.67 2.99 0.34 3.98 0 5 C-6.93 5 -13.86 5 -21 5 C-21 3.68 -21 2.36 -21 1 C-10.605 0.505 -10.605 0.505 0 0 Z " fill="#8C99A5" transform="translate(705,615)"/>
<path d="M0 0 C0.33 0.66 0.66 1.32 1 2 C0.67 2.99 0.34 3.98 0 5 C-6.93 5 -13.86 5 -21 5 C-21 3.68 -21 2.36 -21 1 C-10.605 0.505 -10.605 0.505 0 0 Z " fill="#8C99A5" transform="translate(116,539)"/>
<path d="M0 0 C6.93 0 13.86 0 21 0 C21 1.32 21 2.64 21 4 C14.07 4 7.14 4 0 4 C0 2.68 0 1.36 0 0 Z " fill="#8E9AA5" transform="translate(266,616)"/>
<path d="M0 0 C6.93 0 13.86 0 21 0 C21 1.32 21 2.64 21 4 C14.07 4 7.14 4 0 4 C0 2.68 0 1.36 0 0 Z " fill="#8E9AA5" transform="translate(684,274)"/>
<path d="M0 0 C6.93 0 13.86 0 21 0 C21 1.32 21 2.64 21 4 C14.07 4 7.14 4 0 4 C0 2.68 0 1.36 0 0 Z " fill="#8E9AA5" transform="translate(228,274)"/>
<path d="M0 0 C5.94 0 11.88 0 18 0 C17.67 1.32 17.34 2.64 17 4 C11.39 4 5.78 4 0 4 C0 2.68 0 1.36 0 0 Z " fill="#8F9AA6" transform="translate(496,716)"/>
<path d="M0 0 C5.94 0 11.88 0 18 0 C17.67 1.32 17.34 2.64 17 4 C11.39 4 5.78 4 0 4 C0 2.68 0 1.36 0 0 Z " fill="#8F9AA6" transform="translate(477,716)"/>
<path d="M0 0 C5.94 0 11.88 0 18 0 C17.67 1.32 17.34 2.64 17 4 C11.39 4 5.78 4 0 4 C0 2.68 0 1.36 0 0 Z " fill="#8F9AA6" transform="translate(458,716)"/>
<path d="M0 0 C5.94 0 11.88 0 18 0 C17.67 1.32 17.34 2.64 17 4 C11.39 4 5.78 4 0 4 C0 2.68 0 1.36 0 0 Z " fill="#8F9AA6" transform="translate(439,716)"/>
<path d="M0 0 C5.94 0 11.88 0 18 0 C17.67 1.32 17.34 2.64 17 4 C11.39 4 5.78 4 0 4 C0 2.68 0 1.36 0 0 Z " fill="#8F9AA6" transform="translate(420,716)"/>
<path d="M0 0 C5.94 0 11.88 0 18 0 C17.67 1.32 17.34 2.64 17 4 C11.39 4 5.78 4 0 4 C0 2.68 0 1.36 0 0 Z " fill="#8F9AA6" transform="translate(648,678)"/>
<path d="M0 0 C5.94 0 11.88 0 18 0 C17.67 1.32 17.34 2.64 17 4 C11.39 4 5.78 4 0 4 C0 2.68 0 1.36 0 0 Z " fill="#8F9AA6" transform="translate(629,678)"/>
<path d="M0 0 C5.94 0 11.88 0 18 0 C17.67 1.32 17.34 2.64 17 4 C11.39 4 5.78 4 0 4 C0 2.68 0 1.36 0 0 Z " fill="#8F9AA6" transform="translate(249,678)"/>
<path d="M0 0 C5.94 0 11.88 0 18 0 C17.67 1.32 17.34 2.64 17 4 C11.39 4 5.78 4 0 4 C0 2.68 0 1.36 0 0 Z " fill="#8F9AA6" transform="translate(230,678)"/>
<path d="M0 0 C5.94 0 11.88 0 18 0 C17.67 1.32 17.34 2.64 17 4 C11.39 4 5.78 4 0 4 C0 2.68 0 1.36 0 0 Z " fill="#8F9AA6" transform="translate(648,640)"/>
<path d="M0 0 C5.94 0 11.88 0 18 0 C17.67 1.32 17.34 2.64 17 4 C11.39 4 5.78 4 0 4 C0 2.68 0 1.36 0 0 Z " fill="#8F9AA6" transform="translate(629,640)"/>
<path d="M0 0 C5.94 0 11.88 0 18 0 C17.67 1.32 17.34 2.64 17 4 C11.39 4 5.78 4 0 4 C0 2.68 0 1.36 0 0 Z " fill="#8F9AA6" transform="translate(325,640)"/>
<path d="M0 0 C5.94 0 11.88 0 18 0 C17.67 1.32 17.34 2.64 17 4 C11.39 4 5.78 4 0 4 C0 2.68 0 1.36 0 0 Z " fill="#8F9AA6" transform="translate(306,640)"/>
<path d="M0 0 C5.94 0 11.88 0 18 0 C17.67 1.32 17.34 2.64 17 4 C11.39 4 5.78 4 0 4 C0 2.68 0 1.36 0 0 Z " fill="#8F9AA6" transform="translate(610,298)"/>
<path d="M0 0 C5.94 0 11.88 0 18 0 C17.67 1.32 17.34 2.64 17 4 C11.39 4 5.78 4 0 4 C0 2.68 0 1.36 0 0 Z " fill="#8F9AA6" transform="translate(591,298)"/>
<path d="M0 0 C5.94 0 11.88 0 18 0 C17.67 1.32 17.34 2.64 17 4 C11.39 4 5.78 4 0 4 C0 2.68 0 1.36 0 0 Z " fill="#8F9AA6" transform="translate(572,298)"/>
<path d="M0 0 C5.94 0 11.88 0 18 0 C17.67 1.32 17.34 2.64 17 4 C11.39 4 5.78 4 0 4 C0 2.68 0 1.36 0 0 Z " fill="#8F9AA6" transform="translate(344,298)"/>
<path d="M0 0 C5.94 0 11.88 0 18 0 C17.67 1.32 17.34 2.64 17 4 C11.39 4 5.78 4 0 4 C0 2.68 0 1.36 0 0 Z " fill="#8F9AA6" transform="translate(325,298)"/>
<path d="M0 0 C5.94 0 11.88 0 18 0 C17.67 1.32 17.34 2.64 17 4 C11.39 4 5.78 4 0 4 C0 2.68 0 1.36 0 0 Z " fill="#8F9AA6" transform="translate(306,298)"/>
<path d="M0 0 C5.94 0 11.88 0 18 0 C17.67 1.32 17.34 2.64 17 4 C11.39 4 5.78 4 0 4 C0 2.68 0 1.36 0 0 Z " fill="#8F9AA6" transform="translate(135,298)"/>
<path d="M0 0 C5.94 0 11.88 0 18 0 C17.67 1.32 17.34 2.64 17 4 C11.39 4 5.78 4 0 4 C0 2.68 0 1.36 0 0 Z " fill="#8F9AA6" transform="translate(116,298)"/>
<path d="M0 0 C5.94 0 11.88 0 18 0 C17.67 1.32 17.34 2.64 17 4 C11.39 4 5.78 4 0 4 C0 2.68 0 1.36 0 0 Z " fill="#8F9AA6" transform="translate(724,260)"/>
<path d="M0 0 C5.94 0 11.88 0 18 0 C17.67 1.32 17.34 2.64 17 4 C11.39 4 5.78 4 0 4 C0 2.68 0 1.36 0 0 Z " fill="#8F9AA6" transform="translate(192,260)"/>
<path d="M0 0 C5.94 0 11.88 0 18 0 C17.67 1.32 17.34 2.64 17 4 C11.39 4 5.78 4 0 4 C0 2.68 0 1.36 0 0 Z " fill="#8F9AA6" transform="translate(78,260)"/>
<path d="M0 0 C5.94 0 11.88 0 18 0 C17.67 1.32 17.34 2.64 17 4 C11.39 4 5.78 4 0 4 C0 2.68 0 1.36 0 0 Z " fill="#8F9AA6" transform="translate(705,222)"/>
<path d="M0 0 C5.94 0 11.88 0 18 0 C17.67 1.32 17.34 2.64 17 4 C11.39 4 5.78 4 0 4 C0 2.68 0 1.36 0 0 Z " fill="#8F9AA6" transform="translate(173,222)"/>
<path d="M0 0 C5.94 0 11.88 0 18 0 C17.67 1.32 17.34 2.64 17 4 C11.39 4 5.78 4 0 4 C0 2.68 0 1.36 0 0 Z " fill="#8F9AA6" transform="translate(515,184)"/>
<path d="M0 0 C5.94 0 11.88 0 18 0 C17.67 1.32 17.34 2.64 17 4 C11.39 4 5.78 4 0 4 C0 2.68 0 1.36 0 0 Z " fill="#8F9AA6" transform="translate(477,184)"/>
<path d="M0 0 C5.94 0 11.88 0 18 0 C17.67 1.32 17.34 2.64 17 4 C11.39 4 5.78 4 0 4 C0 2.68 0 1.36 0 0 Z " fill="#8F9AA6" transform="translate(458,184)"/>
<path d="M0 0 C5.94 0 11.88 0 18 0 C17.67 1.32 17.34 2.64 17 4 C11.39 4 5.78 4 0 4 C0 2.68 0 1.36 0 0 Z " fill="#8F9AA6" transform="translate(439,184)"/>
<path d="M0 0 C5.94 0 11.88 0 18 0 C17.67 1.32 17.34 2.64 17 4 C11.39 4 5.78 4 0 4 C0 2.68 0 1.36 0 0 Z " fill="#8F9AA6" transform="translate(420,184)"/>
<path d="M0 0 C5.94 0 11.88 0 18 0 C17.67 1.32 17.34 2.64 17 4 C11.39 4 5.78 4 0 4 C0 2.68 0 1.36 0 0 Z " fill="#8F9AA6" transform="translate(401,184)"/>
<path d="M0 0 C5.94 0 11.88 0 18 0 C17.67 1.32 17.34 2.64 17 4 C11.39 4 5.78 4 0 4 C0 2.68 0 1.36 0 0 Z " fill="#8F9AA6" transform="translate(382,184)"/>
<path d="M0 0 C5.94 0 11.88 0 18 0 C17.67 1.32 17.34 2.64 17 4 C11.39 4 5.78 4 0 4 C0 2.68 0 1.36 0 0 Z " fill="#8F9AA6" transform="translate(363,184)"/>
<path d="M0 0 C6.93 0 13.86 0 21 0 C21 0.99 21 1.98 21 3 C14.07 3 7.14 3 0 3 C0 2.01 0 1.02 0 0 Z " fill="#94A0AD" transform="translate(494,844)"/>
<path d="M0 0 C6.93 0 13.86 0 21 0 C21 0.99 21 1.98 21 3 C14.07 3 7.14 3 0 3 C0 2.01 0 1.02 0 0 Z " fill="#94A0AD" transform="translate(418,844)"/>
<path d="M0 0 C1.98 0 3.96 0 6 0 C6.32019737 4.5894956 5.97413931 7.38854512 3 11 C1.68 11 0.36 11 -1 11 C-0.67 7.37 -0.34 3.74 0 0 Z " fill="#97A7B4" transform="translate(748,532)"/>
<path d="M0 0 C1.98 0 3.96 0 6 0 C6.32019737 4.5894956 5.97413931 7.38854512 3 11 C1.68 11 0.36 11 -1 11 C-0.67 7.37 -0.34 3.74 0 0 Z " fill="#97A7B4" transform="translate(178,532)"/>
<path d="M0 0 C1.65 0.33 3.3 0.66 5 1 C5 6.61 5 12.22 5 18 C4.01 18 3.02 18 2 18 C1.95101563 16.94039062 1.90203125 15.88078125 1.8515625 14.7890625 C1.77653291 13.40101503 1.70098515 12.01299549 1.625 10.625 C1.5940625 9.92632813 1.563125 9.22765625 1.53125 8.5078125 C1.40500502 4.29814173 1.40500502 4.29814173 -1 1 C-0.67 0.67 -0.34 0.34 0 0 Z " fill="#A2B3B9" transform="translate(356,824)"/>
<path d="M0 0 C0.99 0.33 1.98 0.66 3 1 C2.67 2.98 2.34 4.96 2 7 C4.31 7 6.62 7 9 7 C8.67 8.32 8.34 9.64 8 11 C1.9453125 11.1953125 1.9453125 11.1953125 0 11 C-2 9 -2 9 -2.25 5.5 C-2 2 -2 2 0 0 Z " fill="#9DAFBE" transform="translate(575,831)"/>
<path d="M0 0 C1.65 0 3.3 0 5 0 C5 3.63 5 7.26 5 11 C3.35 10.67 1.7 10.34 0 10 C0 6.7 0 3.4 0 0 Z " fill="#707A82" transform="translate(535,703)"/>
<path d="M0 0 C1.65 0 3.3 0 5 0 C5 3.63 5 7.26 5 11 C3.35 10.67 1.7 10.34 0 10 C0 6.7 0 3.4 0 0 Z " fill="#707A82" transform="translate(516,703)"/>
<path d="M0 0 C1.65 0 3.3 0 5 0 C5 3.63 5 7.26 5 11 C3.35 10.67 1.7 10.34 0 10 C0 6.7 0 3.4 0 0 Z " fill="#707A82" transform="translate(402,703)"/>
<path d="M0 0 C1.65 0 3.3 0 5 0 C5 3.63 5 7.26 5 11 C3.35 10.67 1.7 10.34 0 10 C0 6.7 0 3.4 0 0 Z " fill="#707A82" transform="translate(383,703)"/>
<path d="M0 0 C1.65 0 3.3 0 5 0 C5 3.63 5 7.26 5 11 C3.35 10.67 1.7 10.34 0 10 C0 6.7 0 3.4 0 0 Z " fill="#707A82" transform="translate(364,703)"/>
<path d="M0 0 C1.65 0 3.3 0 5 0 C5 3.63 5 7.26 5 11 C3.35 10.67 1.7 10.34 0 10 C0 6.7 0 3.4 0 0 Z " fill="#707A82" transform="translate(649,285)"/>
<path d="M0 0 C1.65 0 3.3 0 5 0 C5 3.63 5 7.26 5 11 C3.35 10.67 1.7 10.34 0 10 C0 6.7 0 3.4 0 0 Z " fill="#707A82" transform="translate(630,285)"/>
<path d="M0 0 C1.65 0 3.3 0 5 0 C5 3.63 5 7.26 5 11 C3.35 10.67 1.7 10.34 0 10 C0 6.7 0 3.4 0 0 Z " fill="#707A82" transform="translate(288,285)"/>
<path d="M0 0 C1.65 0 3.3 0 5 0 C5 3.63 5 7.26 5 11 C3.35 10.67 1.7 10.34 0 10 C0 6.7 0 3.4 0 0 Z " fill="#707A82" transform="translate(269,285)"/>
<path d="M0 0 C1.65 0 3.3 0 5 0 C5 3.63 5 7.26 5 11 C3.35 10.67 1.7 10.34 0 10 C0 6.7 0 3.4 0 0 Z " fill="#707A82" transform="translate(687,209)"/>
<path d="M0 0 C1.65 0 3.3 0 5 0 C5 3.63 5 7.26 5 11 C3.35 10.67 1.7 10.34 0 10 C0 6.7 0 3.4 0 0 Z " fill="#707A82" transform="translate(668,209)"/>
<path d="M0 0 C1.65 0 3.3 0 5 0 C5 3.63 5 7.26 5 11 C3.35 10.67 1.7 10.34 0 10 C0 6.7 0 3.4 0 0 Z " fill="#707A82" transform="translate(212,209)"/>
<path d="M0 0 C1.65 0 3.3 0 5 0 C5 3.63 5 7.26 5 11 C3.35 10.67 1.7 10.34 0 10 C0 6.7 0 3.4 0 0 Z " fill="#707A82" transform="translate(193,209)"/>
<path d="M0 0 C0.33 0 0.66 0 1 0 C0.85962479 1.81293089 0.71255111 3.6253443 0.5625 5.4375 C0.48128906 6.44683594 0.40007812 7.45617187 0.31640625 8.49609375 C0 11 0 11 -1 12 C-2.66617115 12.04063832 -4.33388095 12.042721 -6 12 C-6 10.35 -6 8.7 -6 7 C-5.01 6.67 -4.02 6.34 -3 6 C-3 5.01 -3 4.02 -3 3 C-2.34 3 -1.68 3 -1 3 C-0.67 2.01 -0.34 1.02 0 0 Z " fill="#9BA6B1" transform="translate(204,830)"/>
<path d="M0 0 C1.32 0 2.64 0 4 0 C4 3.63 4 7.26 4 11 C2.68 11 1.36 11 0 11 C0 7.37 0 3.74 0 0 Z " fill="#9BADB6" transform="translate(544,703)"/>
<path d="M0 0 C1.32 0 2.64 0 4 0 C4 3.63 4 7.26 4 11 C2.68 11 1.36 11 0 11 C0 7.37 0 3.74 0 0 Z " fill="#9BADB6" transform="translate(525,703)"/>
<path d="M0 0 C1.32 0 2.64 0 4 0 C4 3.63 4 7.26 4 11 C2.68 11 1.36 11 0 11 C0 7.37 0 3.74 0 0 Z " fill="#9BADB6" transform="translate(411,703)"/>
<path d="M0 0 C1.32 0 2.64 0 4 0 C4 3.63 4 7.26 4 11 C2.68 11 1.36 11 0 11 C0 7.37 0 3.74 0 0 Z " fill="#9BADB6" transform="translate(392,703)"/>
<path d="M0 0 C1.32 0 2.64 0 4 0 C4 3.63 4 7.26 4 11 C2.68 11 1.36 11 0 11 C0 7.37 0 3.74 0 0 Z " fill="#9BADB6" transform="translate(373,703)"/>
<path d="M0 0 C1.32 0 2.64 0 4 0 C4 3.63 4 7.26 4 11 C2.68 11 1.36 11 0 11 C0 7.37 0 3.74 0 0 Z " fill="#9BADB6" transform="translate(658,285)"/>
<path d="M0 0 C1.32 0 2.64 0 4 0 C4 3.63 4 7.26 4 11 C2.68 11 1.36 11 0 11 C0 7.37 0 3.74 0 0 Z " fill="#9BADB6" transform="translate(639,285)"/>
<path d="M0 0 C1.32 0 2.64 0 4 0 C4 3.63 4 7.26 4 11 C2.68 11 1.36 11 0 11 C0 7.37 0 3.74 0 0 Z " fill="#9BADB6" transform="translate(297,285)"/>
<path d="M0 0 C1.32 0 2.64 0 4 0 C4 3.63 4 7.26 4 11 C2.68 11 1.36 11 0 11 C0 7.37 0 3.74 0 0 Z " fill="#9BADB6" transform="translate(278,285)"/>
<path d="M0 0 C1.32 0 2.64 0 4 0 C4 3.63 4 7.26 4 11 C2.68 11 1.36 11 0 11 C0 7.37 0 3.74 0 0 Z " fill="#9CABB2" transform="translate(161,247)"/>
<path d="M0 0 C1.32 0 2.64 0 4 0 C4 3.63 4 7.26 4 11 C2.68 11 1.36 11 0 11 C0 7.37 0 3.74 0 0 Z " fill="#9CABB2" transform="translate(104,247)"/>
<path d="M0 0 C1.32 0 2.64 0 4 0 C4 3.63 4 7.26 4 11 C2.68 11 1.36 11 0 11 C0 7.37 0 3.74 0 0 Z " fill="#9BADB6" transform="translate(696,209)"/>
<path d="M0 0 C1.32 0 2.64 0 4 0 C4 3.63 4 7.26 4 11 C2.68 11 1.36 11 0 11 C0 7.37 0 3.74 0 0 Z " fill="#9BADB6" transform="translate(677,209)"/>
<path d="M0 0 C1.32 0 2.64 0 4 0 C4 3.63 4 7.26 4 11 C2.68 11 1.36 11 0 11 C0 7.37 0 3.74 0 0 Z " fill="#9BADB6" transform="translate(221,209)"/>
<path d="M0 0 C1.32 0 2.64 0 4 0 C4 3.63 4 7.26 4 11 C2.68 11 1.36 11 0 11 C0 7.37 0 3.74 0 0 Z " fill="#9BADB6" transform="translate(202,209)"/>
<path d="M0 0 C1.98 0 3.96 0 6 0 C6 2.31 6 4.62 6 7 C4.02 7 2.04 7 0 7 C0 4.69 0 2.38 0 0 Z " fill="#A3B1BA" transform="translate(615,683)"/>
<path d="M0 0 C1.98 0 3.96 0 6 0 C6 2.31 6 4.62 6 7 C4.02 7 2.04 7 0 7 C0 4.69 0 2.38 0 0 Z " fill="#A3B1BA" transform="translate(273,683)"/>
<path d="M0 0 C1.98 0 3.96 0 6 0 C6 2.31 6 4.62 6 7 C4.02 7 2.04 7 0 7 C0 4.69 0 2.38 0 0 Z " fill="#A3B1BA" transform="translate(615,645)"/>
<path d="M0 0 C1.98 0 3.96 0 6 0 C6 2.31 6 4.62 6 7 C4.02 7 2.04 7 0 7 C0 4.69 0 2.38 0 0 Z " fill="#A3B1BA" transform="translate(596,645)"/>
<path d="M0 0 C1.98 0 3.96 0 6 0 C6 2.31 6 4.62 6 7 C4.02 7 2.04 7 0 7 C0 4.69 0 2.38 0 0 Z " fill="#A3B1BA" transform="translate(577,645)"/>
<path d="M0 0 C1.98 0 3.96 0 6 0 C6 2.31 6 4.62 6 7 C4.02 7 2.04 7 0 7 C0 4.69 0 2.38 0 0 Z " fill="#A3B1BA" transform="translate(387,645)"/>
<path d="M0 0 C1.98 0 3.96 0 6 0 C6 2.31 6 4.62 6 7 C4.02 7 2.04 7 0 7 C0 4.69 0 2.38 0 0 Z " fill="#A3B1BA" transform="translate(368,645)"/>
<path d="M0 0 C1.98 0 3.96 0 6 0 C6 2.31 6 4.62 6 7 C4.02 7 2.04 7 0 7 C0 4.69 0 2.38 0 0 Z " fill="#A3B1BA" transform="translate(349,645)"/>
<path d="M0 0 C1.98 0 3.96 0 6 0 C6 2.31 6 4.62 6 7 C4.02 7 2.04 7 0 7 C0 4.69 0 2.38 0 0 Z " fill="#A3B1BA" transform="translate(558,303)"/>
<path d="M0 0 C1.98 0 3.96 0 6 0 C6 2.31 6 4.62 6 7 C4.02 7 2.04 7 0 7 C0 4.69 0 2.38 0 0 Z " fill="#A3B1BA" transform="translate(539,303)"/>
<path d="M0 0 C1.98 0 3.96 0 6 0 C6 2.31 6 4.62 6 7 C4.02 7 2.04 7 0 7 C0 4.69 0 2.38 0 0 Z " fill="#A3B1BA" transform="translate(520,303)"/>
<path d="M0 0 C1.98 0 3.96 0 6 0 C6 2.31 6 4.62 6 7 C4.02 7 2.04 7 0 7 C0 4.69 0 2.38 0 0 Z " fill="#A3B1BA" transform="translate(501,303)"/>
<path d="M0 0 C1.98 0 3.96 0 6 0 C6 2.31 6 4.62 6 7 C4.02 7 2.04 7 0 7 C0 4.69 0 2.38 0 0 Z " fill="#A3B1BA" transform="translate(482,303)"/>
<path d="M0 0 C1.98 0 3.96 0 6 0 C6 2.31 6 4.62 6 7 C4.02 7 2.04 7 0 7 C0 4.69 0 2.38 0 0 Z " fill="#A3B1BA" transform="translate(463,303)"/>
<path d="M0 0 C1.98 0 3.96 0 6 0 C6 2.31 6 4.62 6 7 C4.02 7 2.04 7 0 7 C0 4.69 0 2.38 0 0 Z " fill="#A3B1BA" transform="translate(444,303)"/>
<path d="M0 0 C1.98 0 3.96 0 6 0 C6 2.31 6 4.62 6 7 C4.02 7 2.04 7 0 7 C0 4.69 0 2.38 0 0 Z " fill="#A3B1BA" transform="translate(425,303)"/>
<path d="M0 0 C1.98 0 3.96 0 6 0 C6 2.31 6 4.62 6 7 C4.02 7 2.04 7 0 7 C0 4.69 0 2.38 0 0 Z " fill="#A3B1BA" transform="translate(406,303)"/>
<path d="M0 0 C1.98 0 3.96 0 6 0 C6 2.31 6 4.62 6 7 C4.02 7 2.04 7 0 7 C0 4.69 0 2.38 0 0 Z " fill="#A3B1BA" transform="translate(387,303)"/>
<path d="M0 0 C1.98 0 3.96 0 6 0 C6 2.31 6 4.62 6 7 C4.02 7 2.04 7 0 7 C0 4.69 0 2.38 0 0 Z " fill="#A3B1BA" transform="translate(368,303)"/>
<path d="M0 0 C1.98 0 3.96 0 6 0 C6 2.31 6 4.62 6 7 C4.02 7 2.04 7 0 7 C0 4.69 0 2.38 0 0 Z " fill="#A3B1BA" transform="translate(159,303)"/>
<path d="M0 0 C1.98 0 3.96 0 6 0 C6 2.31 6 4.62 6 7 C4.02 7 2.04 7 0 7 C0 4.69 0 2.38 0 0 Z " fill="#A3B1BA" transform="translate(102,303)"/>
<path d="M0 0 C1.98 0 3.96 0 6 0 C6 2.31 6 4.62 6 7 C4.02 7 2.04 7 0 7 C0 4.69 0 2.38 0 0 Z " fill="#A3B1BA" transform="translate(710,265)"/>
<path d="M0 0 C1.98 0 3.96 0 6 0 C6 2.31 6 4.62 6 7 C4.02 7 2.04 7 0 7 C0 4.69 0 2.38 0 0 Z " fill="#A3B1BA" transform="translate(216,265)"/>
<path d="M0 0 C1.98 0 3.96 0 6 0 C6 2.31 6 4.62 6 7 C4.02 7 2.04 7 0 7 C0 4.69 0 2.38 0 0 Z " fill="#A3B1BA" transform="translate(64,265)"/>
<path d="M0 0 C1.98 0 3.96 0 6 0 C6 2.31 6 4.62 6 7 C4.02 7 2.04 7 0 7 C0 4.69 0 2.38 0 0 Z " fill="#A3B1BA" transform="translate(729,227)"/>
<path d="M0 0 C1.98 0 3.96 0 6 0 C6 2.31 6 4.62 6 7 C4.02 7 2.04 7 0 7 C0 4.69 0 2.38 0 0 Z " fill="#A3B1BA" transform="translate(159,227)"/>
<path d="M0 0 C1.98 0 3.96 0 6 0 C6 2.31 6 4.62 6 7 C4.02 7 2.04 7 0 7 C0 4.69 0 2.38 0 0 Z " fill="#A3B1BA" transform="translate(596,189)"/>
<path d="M0 0 C1.98 0 3.96 0 6 0 C6 2.31 6 4.62 6 7 C4.02 7 2.04 7 0 7 C0 4.69 0 2.38 0 0 Z " fill="#A3B1BA" transform="translate(577,189)"/>
<path d="M0 0 C1.98 0 3.96 0 6 0 C6 2.31 6 4.62 6 7 C4.02 7 2.04 7 0 7 C0 4.69 0 2.38 0 0 Z " fill="#A3B1BA" transform="translate(558,189)"/>
<path d="M0 0 C1.98 0 3.96 0 6 0 C6 2.31 6 4.62 6 7 C4.02 7 2.04 7 0 7 C0 4.69 0 2.38 0 0 Z " fill="#A3B1BA" transform="translate(539,189)"/>
<path d="M0 0 C1.98 0 3.96 0 6 0 C6 2.31 6 4.62 6 7 C4.02 7 2.04 7 0 7 C0 4.69 0 2.38 0 0 Z " fill="#A3B1BA" transform="translate(330,189)"/>
<path d="M0 0 C1.98 0 3.96 0 6 0 C6 2.31 6 4.62 6 7 C4.02 7 2.04 7 0 7 C0 4.69 0 2.38 0 0 Z " fill="#A3B1BA" transform="translate(311,189)"/>
<path d="M0 0 C1.98 0 3.96 0 6 0 C6 2.31 6 4.62 6 7 C4.02 7 2.04 7 0 7 C0 4.69 0 2.38 0 0 Z " fill="#A3B1BA" transform="translate(292,189)"/>
<path d="M0 0 C0.94875 0.04125 1.8975 0.0825 2.875 0.125 C2 5 2 5 0.875 6.125 C-0.79117115 6.16563832 -2.45888095 6.167721 -4.125 6.125 C-4.75 4.25 -4.75 4.25 -5.125 2.125 C-3.125 0.125 -3.125 0.125 0 0 Z " fill="#3B3B3C" transform="translate(581.125,832.875)"/>
<path d="M0 0 C1.98 0 3.96 0 6 0 C6 1.98 6 3.96 6 6 C4.02 6 2.04 6 0 6 C0 4.02 0 2.04 0 0 Z " fill="#9DABB8" transform="translate(748,520)"/>
<path d="M0 0 C1.98 0 3.96 0 6 0 C6 1.98 6 3.96 6 6 C4.02 6 2.04 6 0 6 C0 4.02 0 2.04 0 0 Z " fill="#9DABB8" transform="translate(178,520)"/>
<path d="M0 0 C2.76223278 2.76223278 2.57856291 5.20706617 3 9 C1.35 9 -0.3 9 -2 9 C-1.125 2.25 -1.125 2.25 0 0 Z " fill="#433F43" transform="translate(466,824)"/>
<path d="M0 0 C2.76223278 2.76223278 2.57856291 5.20706617 3 9 C1.35 9 -0.3 9 -2 9 C-1.125 2.25 -1.125 2.25 0 0 Z " fill="#433F43" transform="translate(238,824)"/>
<path d="M0 0 C2.76223278 2.76223278 2.57856291 5.20706617 3 9 C1.35 9 -0.3 9 -2 9 C-1.125 2.25 -1.125 2.25 0 0 Z " fill="#433F43" transform="translate(162,824)"/>
<path d="M0 0 C0.99 0 1.98 0 3 0 C3 2.97 3 5.94 3 9 C2.01 9 1.02 9 0 9 C0 6.03 0 3.06 0 0 Z " fill="#A9B7C6" transform="translate(536,704)"/>
<path d="M0 0 C0.99 0 1.98 0 3 0 C3 2.97 3 5.94 3 9 C2.01 9 1.02 9 0 9 C0 6.03 0 3.06 0 0 Z " fill="#A9B7C6" transform="translate(517,704)"/>
<path d="M0 0 C0.99 0 1.98 0 3 0 C3 2.97 3 5.94 3 9 C2.01 9 1.02 9 0 9 C0 6.03 0 3.06 0 0 Z " fill="#A9B7C6" transform="translate(403,704)"/>
<path d="M0 0 C0.99 0 1.98 0 3 0 C3 2.97 3 5.94 3 9 C2.01 9 1.02 9 0 9 C0 6.03 0 3.06 0 0 Z " fill="#A9B7C6" transform="translate(384,704)"/>
<path d="M0 0 C0.99 0 1.98 0 3 0 C3 2.97 3 5.94 3 9 C2.01 9 1.02 9 0 9 C0 6.03 0 3.06 0 0 Z " fill="#A9B7C6" transform="translate(365,704)"/>
<path d="M0 0 C0.99 0 1.98 0 3 0 C3 2.97 3 5.94 3 9 C2.01 9 1.02 9 0 9 C0 6.03 0 3.06 0 0 Z " fill="#A9B7C6" transform="translate(650,286)"/>
<path d="M0 0 C0.99 0 1.98 0 3 0 C3 2.97 3 5.94 3 9 C2.01 9 1.02 9 0 9 C0 6.03 0 3.06 0 0 Z " fill="#A9B7C6" transform="translate(631,286)"/>
<path d="M0 0 C0.99 0 1.98 0 3 0 C3 2.97 3 5.94 3 9 C2.01 9 1.02 9 0 9 C0 6.03 0 3.06 0 0 Z " fill="#A9B7C6" transform="translate(289,286)"/>
<path d="M0 0 C0.99 0 1.98 0 3 0 C3 2.97 3 5.94 3 9 C2.01 9 1.02 9 0 9 C0 6.03 0 3.06 0 0 Z " fill="#A9B7C6" transform="translate(270,286)"/>
<path d="M0 0 C0.99 0 1.98 0 3 0 C3 2.97 3 5.94 3 9 C2.01 9 1.02 9 0 9 C0 6.03 0 3.06 0 0 Z " fill="#A9B7C6" transform="translate(688,210)"/>
<path d="M0 0 C0.99 0 1.98 0 3 0 C3 2.97 3 5.94 3 9 C2.01 9 1.02 9 0 9 C0 6.03 0 3.06 0 0 Z " fill="#A9B7C6" transform="translate(669,210)"/>
<path d="M0 0 C0.99 0 1.98 0 3 0 C3 2.97 3 5.94 3 9 C2.01 9 1.02 9 0 9 C0 6.03 0 3.06 0 0 Z " fill="#A9B7C6" transform="translate(213,210)"/>
<path d="M0 0 C0.99 0 1.98 0 3 0 C3 2.97 3 5.94 3 9 C2.01 9 1.02 9 0 9 C0 6.03 0 3.06 0 0 Z " fill="#A9B7C6" transform="translate(194,210)"/>
<path d="M0 0 C2.3125 0.1875 2.3125 0.1875 5 1 C6.8125 3.5625 6.8125 3.5625 8 6 C5.6875 5.8125 5.6875 5.8125 3 5 C1.1875 2.4375 1.1875 2.4375 0 0 Z " fill="#9BACB7" transform="translate(556,702)"/>
<path d="M0 0 C2.3125 0.1875 2.3125 0.1875 5 1 C6.8125 3.5625 6.8125 3.5625 8 6 C5.6875 5.8125 5.6875 5.8125 3 5 C1.1875 2.4375 1.1875 2.4375 0 0 Z " fill="#9BACB7" transform="translate(347,702)"/>
<path d="M0 0 C2.3125 0.1875 2.3125 0.1875 5 1 C6.8125 3.5625 6.8125 3.5625 8 6 C5.6875 5.8125 5.6875 5.8125 3 5 C1.1875 2.4375 1.1875 2.4375 0 0 Z " fill="#9BACB7" transform="translate(670,664)"/>
<path d="M0 0 C2.3125 0.1875 2.3125 0.1875 5 1 C6.8125 3.5625 6.8125 3.5625 8 6 C5.6875 5.8125 5.6875 5.8125 3 5 C1.1875 2.4375 1.1875 2.4375 0 0 Z " fill="#9BACB7" transform="translate(214,664)"/>
<path d="M0 0 C2.3125 0.1875 2.3125 0.1875 5 1 C6.8125 3.5625 6.8125 3.5625 8 6 C5.6875 5.8125 5.6875 5.8125 3 5 C1.1875 2.4375 1.1875 2.4375 0 0 Z " fill="#9BACB7" transform="translate(670,626)"/>
<path d="M0 0 C2.3125 0.1875 2.3125 0.1875 5 1 C6.8125 3.5625 6.8125 3.5625 8 6 C5.6875 5.8125 5.6875 5.8125 3 5 C1.1875 2.4375 1.1875 2.4375 0 0 Z " fill="#9BACB7" transform="translate(290,626)"/>
<path d="M0 0 C2.3125 0.1875 2.3125 0.1875 5 1 C6.8125 3.5625 6.8125 3.5625 8 6 C5.6875 5.8125 5.6875 5.8125 3 5 C1.1875 2.4375 1.1875 2.4375 0 0 Z " fill="#9BACB7" transform="translate(157,474)"/>
<path d="M0 0 C2.3125 0.1875 2.3125 0.1875 5 1 C6.8125 3.5625 6.8125 3.5625 8 6 C5.6875 5.8125 5.6875 5.8125 3 5 C1.1875 2.4375 1.1875 2.4375 0 0 Z " fill="#9BACB7" transform="translate(100,474)"/>
<path d="M0 0 C2.3125 0.1875 2.3125 0.1875 5 1 C6.8125 3.5625 6.8125 3.5625 8 6 C5.6875 5.8125 5.6875 5.8125 3 5 C1.1875 2.4375 1.1875 2.4375 0 0 Z " fill="#9BACB7" transform="translate(119,436)"/>
<path d="M0 0 C2.3125 0.1875 2.3125 0.1875 5 1 C6.8125 3.5625 6.8125 3.5625 8 6 C5.6875 5.8125 5.6875 5.8125 3 5 C1.1875 2.4375 1.1875 2.4375 0 0 Z " fill="#9BACB7" transform="translate(62,436)"/>
<path d="M0 0 C2.3125 0.1875 2.3125 0.1875 5 1 C6.8125 3.5625 6.8125 3.5625 8 6 C5.6875 5.8125 5.6875 5.8125 3 5 C1.1875 2.4375 1.1875 2.4375 0 0 Z " fill="#9BACB7" transform="translate(670,284)"/>
<path d="M0 0 C2.3125 0.1875 2.3125 0.1875 5 1 C6.8125 3.5625 6.8125 3.5625 8 6 C5.6875 5.8125 5.6875 5.8125 3 5 C1.1875 2.4375 1.1875 2.4375 0 0 Z " fill="#9BACB7" transform="translate(252,284)"/>
<path d="M0 0 C2.3125 0.1875 2.3125 0.1875 5 1 C6.8125 3.5625 6.8125 3.5625 8 6 C5.6875 5.8125 5.6875 5.8125 3 5 C1.1875 2.4375 1.1875 2.4375 0 0 Z " fill="#9BACB7" transform="translate(138,246)"/>
<path d="M0 0 C2.3125 0.1875 2.3125 0.1875 5 1 C6.8125 3.5625 6.8125 3.5625 8 6 C5.6875 5.8125 5.6875 5.8125 3 5 C1.1875 2.4375 1.1875 2.4375 0 0 Z " fill="#9BACB7" transform="translate(119,246)"/>
<path d="M0 0 C0.66 0.66 1.32 1.32 2 2 C2.66 1.67 3.32 1.34 4 1 C4 2.65 4 4.3 4 6 C2.35 6 0.7 6 -1 6 C-1.042721 4.33388095 -1.04063832 2.66617115 -1 1 C-0.67 0.67 -0.34 0.34 0 0 Z " fill="#A4B4C2" transform="translate(199,836)"/>
<path d="M0 0 C2.4375 0.375 2.4375 0.375 5 1 C5.33 1.66 5.66 2.32 6 3 C3.36 3 0.72 3 -2 3 C-1.34 2.01 -0.68 1.02 0 0 Z " fill="#2B2B2E" transform="translate(693,827)"/>
<path d="M0 0 C2.4375 0.375 2.4375 0.375 5 1 C5.33 1.66 5.66 2.32 6 3 C3.36 3 0.72 3 -2 3 C-1.34 2.01 -0.68 1.02 0 0 Z " fill="#2B2B2E" transform="translate(655,827)"/>
<path d="M0 0 C2.4375 0.375 2.4375 0.375 5 1 C5.33 1.66 5.66 2.32 6 3 C3.36 3 0.72 3 -2 3 C-1.34 2.01 -0.68 1.02 0 0 Z " fill="#2B2B2E" transform="translate(389,827)"/>
</svg>
